<svg xmlns="http://www.w3.org/2000/svg" viewBox="0 0 24 24">
	<defs>
		<style>.a{fill:none;stroke:currentColor;stroke-linecap:round;stroke-linejoin:round;}</style>
	</defs>
	<title>ankle-tracker</title>
	<line class="a" x1="10.076" y1="1.033" x2="10.076" y2="5.033"/>
	<line class="a" x1="14.076" y1="5.033" x2="14.076" y2="1.033"/>
	<rect class="a" x="8.076" y="5.033" width="8" height="6.999" rx="1" ry="1"/>
	<path class="a" d="M11.294,5.033a2.782,2.782,0,0,1,2.782,2.782V9.25a2.782,2.782,0,0,1-2.782,2.783"/>
	<path class="a" d="M10.076,12.032v1.5C2.014,19.867,3.3,18.741,2.476,19.8c-.988,1.318-.142,2.266.777,3.046a.5.5,0,0,0,.823-.381v-.936a1.849,1.849,0,0,1,.881-1.474l5.619-3.026.039.271a46.656,46.656,0,0,0,.977,4.65.5.5,0,0,0,.968,0,46.412,46.412,0,0,0,.978-4.651l.038-.271,5.62,3.026a1.848,1.848,0,0,1,.88,1.474v.936a.5.5,0,0,0,.824.381c.925-.785,1.767-1.724.776-3.046-.826-1.062.461.063-7.6-6.271v-1.5"/>
	<path class="a" d="M18.576,7.033a1.5,1.5,0,1,1,0,3"/>
	<path class="a" d="M18.576,5.033a3.5,3.5,0,0,1,0,7"/>
	<path class="a" d="M5.576,7.033a1.5,1.5,0,1,0,0,3"/>
	<path class="a" d="M5.576,5.033a3.5,3.5,0,0,0,0,7"/>
</svg>