<svg width="24" height="21" viewBox="0 0 24 21" fill="none" xmlns="http://www.w3.org/2000/svg">
<path d="M23.5 5.5H0.5V1.5C0.5 1 1 0.5 1.5 0.5H17C19.4 0.5 22.3333 0.833333 23.5 1V5.5Z" fill="#D2EFFE"/>
<path d="M14 3.75403C14.4142 3.75403 14.75 3.41824 14.75 3.00403C14.75 2.58981 14.4142 2.25403 14 2.25403C13.5858 2.25403 13.25 2.58981 13.25 3.00403C13.25 3.41824 13.5858 3.75403 14 3.75403Z" fill="#444444"/>
<path d="M17 3.75403C17.4142 3.75403 17.75 3.41824 17.75 3.00403C17.75 2.58981 17.4142 2.25403 17 2.25403C16.5858 2.25403 16.25 2.58981 16.25 3.00403C16.25 3.41824 16.5858 3.75403 17 3.75403Z" fill="#444444"/>
<path d="M20 3.75403C20.4142 3.75403 20.75 3.41824 20.75 3.00403C20.75 2.58981 20.4142 2.25403 20 2.25403C19.5858 2.25403 19.25 2.58981 19.25 3.00403C19.25 3.41824 19.5858 3.75403 20 3.75403Z" fill="#444444"/>
<path d="M1.5 20.004C0.673 20.004 0 19.331 0 18.504V1.50403C0 0.677028 0.673 0.00402832 1.5 0.00402832H22.5C23.327 0.00402832 24 0.677028 24 1.50403V18.504C24 19.331 23.327 20.004 22.5 20.004H1.5ZM1 18.504C1 18.78 1.224 19.004 1.5 19.004H22.5C22.776 19.004 23 18.78 23 18.504V13H18.79L17.432 15.376C17.325 15.564 17.156 15.714 16.957 15.8C16.832 15.854 16.699 15.881 16.564 15.881C16.437 15.881 16.311 15.857 16.192 15.809C15.944 15.71 15.749 15.52 15.644 15.274L13.404 10.045L10.442 14.487C10.33 14.656 10.171 14.785 9.982 14.86C9.863 14.908 9.738 14.932 9.611 14.932C9.199 14.932 8.835 14.685 8.682 14.303L7.354 10.982L6.04 12.625C5.85 12.862 5.566 12.999 5.261 13H1V18.504ZM13.406 9.04503C13.603 9.04503 13.794 9.10303 13.958 9.21303C14.12 9.32103 14.247 9.47203 14.323 9.65203L16.563 14.881L17.921 12.505C18.1 12.193 18.432 12 18.79 12H23V6.00403H1V12H5.26L6.574 10.357C6.74 10.149 6.978 10.017 7.244 9.98803C7.282 9.98403 7.319 9.98203 7.356 9.98203C7.585 9.98203 7.8 10.058 7.979 10.201C8.114 10.308 8.219 10.45 8.284 10.611L9.612 13.932L12.573 9.49103C12.72 9.26903 12.946 9.11703 13.208 9.06503C13.273 9.05103 13.34 9.04503 13.406 9.04503ZM23 5.00403V1.50403C23 1.22803 22.776 1.00403 22.5 1.00403H1.5C1.224 1.00403 1 1.22803 1 1.50403V5.00403H23Z" fill="#444444"/>
</svg>
