<svg width="24" height="24" viewBox="0 0 24 24" fill="none" xmlns="http://www.w3.org/2000/svg">
<g clip-path="url(#clip0)">
<path d="M17 14C14.7943 14 13 15.7943 13 18C13 20.2057 14.7943 22 17 22C19.2057 22 21 20.2057 21 18C21 15.7943 19.2057 14 17 14Z" fill="#D2EFFE"/>
<path d="M4 3.75403C3.586 3.75403 3.25 3.41803 3.25 3.00403C3.256 2.58903 3.593 2.25403 4 2.25403C4.414 2.25403 4.75 2.59103 4.75 3.00403C4.75 3.20403 4.672 3.39303 4.53 3.53403C4.388 3.67603 4.2 3.75403 4 3.75403Z" fill="#444444"/>
<path d="M7 3.75403C6.586 3.75403 6.25 3.41803 6.25 3.00403C6.256 2.58903 6.593 2.25403 7 2.25403C7.414 2.25403 7.75 2.59103 7.75 3.00403C7.75 3.20403 7.672 3.39303 7.53 3.53403C7.388 3.67603 7.2 3.75403 7 3.75403Z" fill="#444444"/>
<path d="M10 3.754C9.586 3.754 9.25 3.418 9.25 3.004C9.25 2.588 9.586 2.25 10 2.25C10.036 2.25 10.073 2.254 10.108 2.262C10.475 2.315 10.75 2.632 10.75 3.004C10.75 3.204 10.672 3.393 10.53 3.534C10.388 3.676 10.2 3.754 10 3.754Z" fill="#444444"/>
<path d="M2.5 21C1.121 21 0 19.878 0 18.5V2.5C0 1.121 1.121 0 2.5 0H21.5C22.878 0 24 1.121 24 2.5V18C24 18.276 23.776 18.5 23.5 18.5C23.224 18.5 23 18.276 23 18V6.004H1V18.5C1 19.327 1.673 20 2.5 20H10.5C10.776 20 11 20.224 11 20.5C11 20.776 10.776 21 10.5 21H2.5ZM23 5.004V2.5C23 1.673 22.327 1 21.5 1H2.5C1.673 1 1 1.673 1 2.5V5.004H23Z" fill="#444444"/>
<path d="M3.5 9.00403C3.224 9.00403 3 8.78003 3 8.50403C3 8.22803 3.224 8.00403 3.5 8.00403H7C7.276 8.00403 7.5 8.22803 7.5 8.50403C7.5 8.78003 7.276 9.00403 7 9.00403H3.5Z" fill="#444444"/>
<path d="M8 13.004C7.724 13.004 7.5 12.78 7.5 12.504C7.5 12.228 7.724 12.004 8 12.004H11.5C11.776 12.004 12 12.228 12 12.504C12 12.78 11.776 13.004 11.5 13.004H8Z" fill="#444444"/>
<path d="M10 9.00403C9.724 9.00403 9.5 8.78003 9.5 8.50403C9.5 8.22803 9.724 8.00403 10 8.00403H16C16.276 8.00403 16.5 8.22803 16.5 8.50403C16.5 8.78003 16.276 9.00403 16 9.00403H10Z" fill="#444444"/>
<path d="M3.5 17.004C3.224 17.004 3 16.78 3 16.504C3 16.228 3.224 16.004 3.5 16.004H9.5C9.776 16.004 10 16.228 10 16.504C10 16.78 9.776 17.004 9.5 17.004H3.5Z" fill="#444444"/>
<path d="M18.5 9.00403C18.224 9.00403 18 8.78003 18 8.50403C18 8.22803 18.224 8.00403 18.5 8.00403H20.5C20.776 8.00403 21 8.22803 21 8.50403C21 8.78003 20.776 9.00403 20.5 9.00403H18.5Z" fill="#444444"/>
<path d="M3.5 13.004C3.224 13.004 3 12.78 3 12.504C3 12.228 3.224 12.004 3.5 12.004H5.5C5.776 12.004 6 12.228 6 12.504C6 12.78 5.776 13.004 5.5 13.004H3.5Z" fill="#444444"/>
<path d="M23 24.004C22.866 24.004 22.741 23.952 22.646 23.858L19.804 21.016C19.006 21.655 18.019 22.005 17 22.005C14.519 22.005 12.5 19.986 12.5 17.505C12.5 15.024 14.519 13.005 17 13.005C19.481 13.005 21.5 15.024 21.5 17.505C21.5 18.524 21.15 19.511 20.511 20.309L23.353 23.151C23.447 23.245 23.499 23.371 23.499 23.505C23.499 23.639 23.447 23.764 23.353 23.859C23.259 23.954 23.134 24.004 23 24.004ZM17 14.004C15.07 14.004 13.5 15.574 13.5 17.504C13.5 19.434 15.07 21.004 17 21.004C18.93 21.004 20.5 19.434 20.5 17.504C20.5 15.574 18.93 14.004 17 14.004Z" fill="#444444"/>
</g>
<defs>
<clipPath id="clip0">
<rect width="24" height="24" fill="white"/>
</clipPath>
</defs>
</svg>
