<svg width="24" height="22" viewBox="0 0 24 22" fill="none" xmlns="http://www.w3.org/2000/svg">
<circle cx="2.5" cy="19.5" r="1.5" fill="#D2EFFE"/>
<path d="M2.5 5.99805C1.121 5.99805 0 4.87705 0 3.49805C0 2.11905 1.121 0.998047 2.5 0.998047C3.879 0.998047 5 2.12005 5 3.49805C5 4.87605 3.879 5.99805 2.5 5.99805ZM2.5 1.99805C1.673 1.99805 1 2.67105 1 3.49805C1 4.32505 1.673 4.99805 2.5 4.99805C3.327 4.99805 4 4.32505 4 3.49805C4 2.67105 3.327 1.99805 2.5 1.99805Z" fill="#444444"/>
<path d="M8.5 3.99805C8.224 3.99805 8 3.77405 8 3.49805C8 3.22205 8.224 2.99805 8.5 2.99805H23.5C23.776 2.99805 24 3.22205 24 3.49805C24 3.77405 23.776 3.99805 23.5 3.99805H8.5Z" fill="#444444"/>
<circle cx="2.5" cy="11.5" r="1.5" fill="#D2EFFE"/>
<path d="M2.5 13.998C1.121 13.998 0 12.876 0 11.498C0 10.119 1.121 8.99805 2.5 8.99805C3.879 8.99805 5 10.12 5 11.498C5 12.876 3.879 13.998 2.5 13.998ZM2.5 9.99805C1.673 9.99805 1 10.671 1 11.498C1 12.325 1.673 12.998 2.5 12.998C3.327 12.998 4 12.325 4 11.498C4 10.671 3.327 9.99805 2.5 9.99805Z" fill="#444444"/>
<path d="M8.5 11.998C8.224 11.998 8 11.774 8 11.498C8 11.222 8.224 10.998 8.5 10.998H23.5C23.776 10.998 24 11.222 24 11.498C24 11.774 23.776 11.998 23.5 11.998H8.5Z" fill="#444444"/>
<circle cx="2.5" cy="3.5" r="1.5" fill="#D2EFFE"/>
<path d="M2.5 21.998C1.121 21.998 0 20.876 0 19.498C0 18.12 1.121 16.998 2.5 16.998C3.879 16.998 5 18.12 5 19.498C5 20.876 3.879 21.998 2.5 21.998ZM2.5 17.998C1.673 17.998 1 18.671 1 19.498C1 20.325 1.673 20.998 2.5 20.998C3.327 20.998 4 20.325 4 19.498C4 18.671 3.327 17.998 2.5 17.998Z" fill="#444444"/>
<path d="M8.5 19.998C8.224 19.998 8 19.774 8 19.498C8 19.222 8.224 18.998 8.5 18.998H23.5C23.776 18.998 24 19.222 24 19.498C24 19.774 23.776 19.998 23.5 19.998H8.5Z" fill="#444444"/>
</svg>
