<svg width="24" height="24" viewBox="0 0 24 24" fill="none" xmlns="http://www.w3.org/2000/svg">
<g clip-path="url(#clip0)">
<path d="M12.4971 13.9651C10.9811 13.9651 9.74707 12.7311 9.74707 11.2151C9.74707 9.69909 10.9811 8.46509 12.4971 8.46509C14.0131 8.46509 15.2471 9.69909 15.2471 11.2151C15.2471 12.7321 14.0131 13.9651 12.4971 13.9651ZM12.4971 9.46509C11.5321 9.46509 10.7471 10.2501 10.7471 11.2151C10.7471 12.1801 11.5321 12.9651 12.4971 12.9651C13.4621 12.9651 14.2471 12.1801 14.2471 11.2151C14.2471 10.2501 13.4621 9.46509 12.4971 9.46509Z" fill="white"/>
<path d="M12.4971 23.979C12.2211 23.979 11.9971 23.755 11.9971 23.479V22.14C11.9971 20.89 10.8171 19.122 9.67605 17.413C8.69205 15.939 7.67806 14.421 7.24406 13.016C6.62006 14.054 6.01306 15.236 6.00106 16.114C6.00206 16.123 6.00306 16.132 6.00306 16.141V17.48C6.00306 17.756 5.77906 17.98 5.50306 17.98C5.22706 17.98 5.00306 17.756 5.00306 17.48V16.172C5.00206 16.16 5.00106 16.15 5.00106 16.14C5.00106 14.89 3.82106 13.122 2.68006 11.412C1.55006 9.72003 0.382056 7.97003 0.0950557 6.40103C-0.223944 5.06903 0.00105578 3.67503 0.730056 2.49003C1.46006 1.30403 2.60506 0.474033 3.95506 0.151033C4.35306 0.0570332 4.76006 0.0090332 5.16506 0.0090332C5.27806 0.0090332 5.39006 0.0130332 5.50306 0.0200332C5.61606 0.0130332 5.72806 0.0090332 5.84006 0.0090332C8.55606 0.0090332 10.8371 2.13103 11.0331 4.83903C11.0651 5.27803 11.0411 5.71703 10.9621 6.14903C11.3551 6.05603 11.7581 6.00903 12.1621 6.00903C12.2731 6.00903 12.3841 6.01303 12.4941 6.02003C12.5941 6.01403 12.6921 6.01103 12.7911 6.01103C12.8661 6.01103 12.9411 6.01303 13.0181 6.01603C12.6011 3.37003 14.3081 0.784033 16.9521 0.152033C17.3481 0.0570332 17.7541 0.0090332 18.1611 0.0090332C18.2721 0.0090332 18.3831 0.0130332 18.4951 0.0200332C18.6101 0.0130332 18.7241 0.0090332 18.8391 0.0090332C20.0871 0.0090332 21.2951 0.460033 22.2411 1.27903C23.2931 2.18903 23.9271 3.45403 24.0261 4.84103C24.0651 5.37403 24.0211 5.90803 23.8971 6.42803C23.6821 7.71803 22.6111 9.34803 21.4761 11.074C20.2641 12.917 19.0121 14.822 18.9961 16.116C18.9971 16.124 18.9971 16.133 18.9971 16.141V17.48C18.9971 17.756 18.7731 17.98 18.4971 17.98C18.2211 17.98 17.9971 17.756 17.9971 17.48V16.187C17.9081 15.435 17.6801 14.693 17.3311 14.015C16.8641 14.964 16.1881 15.993 15.4781 17.073C14.2581 18.929 12.9971 20.848 12.9971 22.142V23.481C12.9971 23.755 12.7731 23.979 12.4971 23.979ZM7.99006 11.748C8.01105 11.913 8.03706 12.06 8.06906 12.195C8.32406 13.587 9.43406 15.249 10.5071 16.857C11.2851 18.023 12.0261 19.133 12.4951 20.173C13.0041 19.014 13.8351 17.75 14.6421 16.522C15.6701 14.957 16.7311 13.343 16.9181 12.228C16.9191 12.223 16.9231 12.202 16.9241 12.197C17.0251 11.773 17.0601 11.341 17.0291 10.91C16.8951 9.07003 15.5531 7.51803 13.7561 7.11403C13.7231 7.12103 13.6901 7.12403 13.6561 7.12403C13.5641 7.12403 13.4731 7.09703 13.3931 7.04803C13.2001 7.02203 13.0081 7.00903 12.8211 7.00903C12.7241 7.00903 12.6271 7.01203 12.5291 7.02003C12.5231 7.02003 12.4991 7.02103 12.4931 7.02103L12.4621 7.02003C12.3601 7.01303 12.2611 7.00903 12.1611 7.00903C11.8331 7.00903 11.5041 7.04803 11.1841 7.12403C10.9921 7.17003 10.7941 7.23503 10.5791 7.32303C10.5001 7.39403 10.4011 7.43803 10.2941 7.44803C8.78205 8.19803 7.85206 9.81803 7.96806 11.504C7.99606 11.583 8.00406 11.666 7.99006 11.748ZM5.16506 1.00903C4.83706 1.00903 4.50906 1.04803 4.18806 1.12403C3.09706 1.38503 2.17106 2.05703 1.58206 3.01603C0.993056 3.97503 0.812056 5.10403 1.07306 6.19503C1.32806 7.58703 2.43806 9.24903 3.51106 10.857C4.28706 12.02 5.02706 13.128 5.49706 14.169C5.84306 13.381 6.34506 12.54 6.97006 11.568C6.82606 9.47703 7.97006 7.48403 9.84706 6.55203C9.88106 6.43303 9.90706 6.32503 9.92506 6.22303C10.0311 5.77903 10.0671 5.34203 10.0361 4.91103C9.87806 2.72303 8.03806 1.00903 5.84706 1.00903C5.74506 1.00903 5.64206 1.01303 5.53906 1.02003C5.53306 1.02003 5.50906 1.02103 5.50306 1.02103L5.47006 1.02003C5.36706 1.01303 5.26606 1.00903 5.16506 1.00903ZM17.8001 12.846C18.0791 13.263 18.3121 13.703 18.4991 14.16C19.0081 13.006 19.8351 11.748 20.6391 10.524C21.6671 8.96003 22.7301 7.34403 22.9171 6.22803C23.0231 5.77903 23.0601 5.34203 23.0291 4.91203C22.9481 3.79203 22.4361 2.77003 21.5861 2.03403C20.8211 1.37203 19.8471 1.00803 18.8431 1.00803C18.7401 1.00803 18.6351 1.01203 18.5311 1.01903C18.5251 1.01903 18.5001 1.02003 18.4931 1.02003H18.4601C18.3601 1.01303 18.2611 1.00903 18.1611 1.00903C17.8341 1.00903 17.5051 1.04803 17.1851 1.12403C14.9401 1.66003 13.5451 3.91503 14.0611 6.16003C16.2441 6.69203 17.8651 8.59303 18.0281 10.838C18.0671 11.369 18.0241 11.901 17.9011 12.419C17.8791 12.546 17.8451 12.69 17.8001 12.846Z" fill="white"/>
<path d="M18.4971 7.96509C16.9811 7.96509 15.7471 6.73109 15.7471 5.21509C15.7471 3.69909 16.9811 2.46509 18.4971 2.46509C20.0131 2.46509 21.2471 3.69909 21.2471 5.21509C21.2471 6.73109 20.0131 7.96509 18.4971 7.96509ZM18.4971 3.46509C17.5321 3.46509 16.7471 4.25009 16.7471 5.21509C16.7471 6.18009 17.5321 6.96509 18.4971 6.96509C19.4621 6.96509 20.2471 6.18009 20.2471 5.21509C20.2471 4.25009 19.4621 3.46509 18.4971 3.46509Z" fill="white"/>
<path d="M5.50305 7.96509C3.98705 7.96509 2.75305 6.73109 2.75305 5.21509C2.75305 3.69909 3.98705 2.46509 5.50305 2.46509C7.01905 2.46509 8.25305 3.69909 8.25305 5.21509C8.25305 6.73109 7.01905 7.96509 5.50305 7.96509ZM5.50305 3.46509C4.53805 3.46509 3.75305 4.25009 3.75305 5.21509C3.75305 6.18009 4.53805 6.96509 5.50305 6.96509C6.46805 6.96509 7.25305 6.18009 7.25305 5.21509C7.25305 4.25009 6.46805 3.46509 5.50305 3.46509Z" fill="white"/>
</g>
<defs>
<clipPath id="clip0">
<rect width="24" height="24" fill="white"/>
</clipPath>
</defs>
</svg>
