<svg width="24" height="24" viewBox="0 0 24 24" fill="none" xmlns="http://www.w3.org/2000/svg">
<path d="M9.5 16.5H1.5C0.947715 16.5 0.5 16.9477 0.5 17.5V22.5C0.5 23.0523 0.947715 23.5 1.5 23.5H9.5C10.0523 23.5 10.5 23.0523 10.5 22.5V17.5C10.5 16.9477 10.0523 16.5 9.5 16.5Z" stroke="white" stroke-linecap="round" stroke-linejoin="round"/>
<path d="M14.5 23.5H22.5C23.0523 23.5 23.5 23.0523 23.5 22.5V11.5C23.5 10.9477 23.0523 10.5 22.5 10.5L14.5 10.5C13.9477 10.5 13.5 10.9477 13.5 11.5L13.5 22.5C13.5 23.0523 13.9477 23.5 14.5 23.5Z" stroke="white" stroke-linecap="round" stroke-linejoin="round"/>
<path d="M14.5 7.5L22.5 7.5C23.0523 7.5 23.5 7.05228 23.5 6.5V1.5C23.5 0.947715 23.0523 0.5 22.5 0.5L14.5 0.5C13.9477 0.5 13.5 0.947715 13.5 1.5V6.5C13.5 7.05228 13.9477 7.5 14.5 7.5Z" stroke="white" stroke-linecap="round" stroke-linejoin="round"/>
<path d="M9.5 0.5H1.5C0.947715 0.5 0.5 0.947715 0.5 1.5V12.5C0.5 13.0523 0.947715 13.5 1.5 13.5H9.5C10.0523 13.5 10.5 13.0523 10.5 12.5V1.5C10.5 0.947715 10.0523 0.5 9.5 0.5Z" stroke="white" stroke-linecap="round" stroke-linejoin="round"/>
</svg>
