<svg xmlns="http://www.w3.org/2000/svg" viewBox="0 0 24 24.09"><defs><style>.cls-1{fill:#fff;}.cls-2,.cls-3{fill:none;stroke:#fff;stroke-miterlimit:10;}.cls-3{stroke-linecap:round;}</style></defs><title>Asset 4</title><g id="Layer_2" data-name="Layer 2"><g id="Layer_1-2" data-name="Layer 1"><path class="cls-1" d="M5.07,3.71h0a.76.76,0,0,1-.55.23.78.78,0,0,1-.77-.77.79.79,0,0,1,.77-.78.78.78,0,0,1,.78.77A.76.76,0,0,1,5.07,3.71Z"/><path class="cls-1" d="M8.27,3.71h0a.76.76,0,0,1-.54.23A.77.77,0,0,1,7,3.17a.79.79,0,0,1,.77-.78.78.78,0,0,1,.77.77A.8.8,0,0,1,8.27,3.71Z"/><path class="cls-1" d="M10.14,3.16a.77.77,0,0,1,.77-.78H11a.77.77,0,0,1,.66.76.76.76,0,0,1-.23.55h0a.76.76,0,0,1-.55.23A.78.78,0,0,1,10.14,3.16Z"/><path class="cls-1" d="M2.5,21A2.5,2.5,0,0,1,0,18.5V2.5A2.5,2.5,0,0,1,2.5,0h19A2.5,2.5,0,0,1,24,2.5V18a.5.5,0,0,1-1,0V6H1V18.5A1.5,1.5,0,0,0,2.5,20h8a.5.5,0,0,1,0,1ZM23,5V2.5A1.5,1.5,0,0,0,21.5,1H2.5A1.5,1.5,0,0,0,1,2.5V5Z"/><path class="cls-1" d="M3.5,9A.5.5,0,0,1,3,8.5.5.5,0,0,1,3.5,8H7a.5.5,0,0,1,.5.5A.5.5,0,0,1,7,9Z"/><path class="cls-1" d="M8,13a.5.5,0,0,1-.5-.5A.5.5,0,0,1,8,12h3.5a.5.5,0,0,1,.5.5.5.5,0,0,1-.5.5Z"/><path class="cls-1" d="M10,9a.5.5,0,0,1-.5-.5A.5.5,0,0,1,10,8h6a.5.5,0,0,1,.5.5A.5.5,0,0,1,16,9Z"/><path class="cls-1" d="M3.5,17a.5.5,0,0,1-.5-.5.5.5,0,0,1,.5-.5h6a.5.5,0,0,1,.5.5.5.5,0,0,1-.5.5Z"/><path class="cls-1" d="M18.5,9a.5.5,0,0,1-.5-.5.5.5,0,0,1,.5-.5h2a.5.5,0,0,1,.5.5.5.5,0,0,1-.5.5Z"/><path class="cls-1" d="M3.5,13a.5.5,0,0,1-.5-.5.5.5,0,0,1,.5-.5h2a.5.5,0,0,1,.5.5.5.5,0,0,1-.5.5Z"/><circle class="cls-2" cx="17" cy="17.01" r="4"/><line class="cls-3" x1="19.41" y1="20.41" x2="22.59" y2="23.59"/></g></g></svg>