<?xml version="1.0" encoding="UTF-8" standalone="no"?>
<svg
   xmlns:dc="http://purl.org/dc/elements/1.1/"
   xmlns:cc="http://creativecommons.org/ns#"
   xmlns:rdf="http://www.w3.org/1999/02/22-rdf-syntax-ns#"
   xmlns:svg="http://www.w3.org/2000/svg"
   xmlns="http://www.w3.org/2000/svg"
   height="30.5"
   width="28"
   xml:space="preserve"
   viewBox="0 0 28 30.5"
   y="0px"
   x="0px"
   id="Layer_1"
   version="1.1"><metadata
   id="metadata19"><rdf:RDF><cc:Work
       rdf:about=""><dc:format>image/svg+xml</dc:format><dc:type
         rdf:resource="http://purl.org/dc/dcmitype/StillImage" /></cc:Work></rdf:RDF></metadata><defs
   id="defs17" />
<style
   id="style2"
   type="text/css">
	.st0{fill:#CDEEFD;}
	.st1{fill:#444444;}
	.st2{display:none;fill:#CDEEFD;stroke:#1B314B;stroke-linejoin:round;stroke-miterlimit:10;}
</style>
<path
   style="fill:#cdeefd"
   id="path4"
   d="m 18.8,30 c 3.7,0 6.8,-3 6.8,-6.8 0,-5.1 -4.2,-8.3 -6.8,-14.3 -2.6,6 -6.8,9.1 -6.8,14.3 0.1,3.8 3.1,6.8 6.8,6.8 z"
   class="st0" />
<path
   style="fill:#444444"
   id="path6"
   d="m 18.8,30.5 c -4,0 -7.2,-3.2 -7.3,-7.3 0,-3.4 1.6,-5.8 3.5,-8.6 1.2,-1.8 2.4,-3.6 3.4,-5.9 0.2,-0.4 0.8,-0.4 0.9,0 1,2.3 2.2,4.1 3.4,5.9 1.9,2.9 3.5,5.3 3.5,8.6 -0.1,4 -3.4,7.3 -7.4,7.3 z m 0,-20.4 c -0.9,1.9 -2,3.6 -3,5 -1.8,2.7 -3.3,5 -3.3,8.1 0.1,3.5 2.9,6.3 6.3,6.3 3.5,0 6.3,-2.8 6.3,-6.3 0,-3 -1.5,-5.3 -3.3,-8 -1,-1.5 -2.1,-3.2 -3,-5.1 z"
   class="st1" />
<path
   style="fill:#444444"
   id="path8"
   d="m 18.7,28 c -0.3,0 -0.5,-0.2 -0.5,-0.5 0,-0.3 0.2,-0.5 0.5,-0.5 2.2,0 4,-1.8 4,-4 0,-0.3 0.2,-0.5 0.5,-0.5 0.3,0 0.5,0.2 0.5,0.5 0,2.8 -2.3,5 -5,5 z"
   class="st1" />
<path
   style="fill:#444444"
   id="path10"
   d="M 25.5,4 C 24.7,4 24,4.4 23.5,5 L 19.9,3.2 C 20,2.9 20,2.7 20,2.5 20,1.1 18.9,0 17.5,0 16.1,0 15,1.1 15,2.5 c 0,0.7 0.3,1.3 0.7,1.7 l -4.2,6 C 11.2,10.1 10.9,10 10.5,10 9.7,10 9,10.4 8.5,11 L 4.9,9.1 C 5,8.9 5,8.7 5,8.5 5,7.1 3.9,6 2.5,6 1.1,6 0,7.1 0,8.5 0,9.9 1.1,11 2.5,11 3.3,11 4,10.6 4.5,10 l 3.6,1.8 C 8,12 8,12.2 8,12.5 8,13.9 9.1,15 10.5,15 11.9,15 13,13.9 13,12.5 13,11.8 12.7,11.2 12.3,10.8 l 4.2,-6 c 0.3,0.1 0.6,0.2 1,0.2 0.8,0 1.5,-0.4 2,-1 l 3.6,1.8 C 23,6 23,6.2 23,6.5 23,7.9 24.1,9 25.5,9 26.9,9 28,7.8 28,6.5 28,5.2 26.9,4 25.5,4 Z m -23,6 C 1.7,10 1,9.3 1,8.5 1,7.7 1.7,7 2.5,7 3.3,7 4,7.6 4,8.5 4,9.4 3.3,10 2.5,10 Z m 8,4 C 9.7,14 9,13.3 9,12.5 9,11.7 9.7,11 10.5,11 c 0.8,0 1.5,0.7 1.5,1.5 0,0.8 -0.7,1.5 -1.5,1.5 z m 7,-10 C 16.7,4 16,3.3 16,2.5 16,1.7 16.7,1 17.5,1 18.3,1 19,1.6 19,2.5 19,3.4 18.3,4 17.5,4 Z m 8,4 C 24.7,8 24,7.3 24,6.5 24,5.7 24.7,5 25.5,5 26.3,5 27,5.6 27,6.5 27,7.4 26.3,8 25.5,8 Z"
   class="st1" />
<path
   style="display:none;fill:#cdeefd;stroke:#1b314b;stroke-linejoin:round;stroke-miterlimit:100"
   id="path12"
   d="m 18.8,30 c 3.7,0 6.8,-3 6.8,-6.8 0,-5.1 -4.2,-8.3 -6.8,-14.3 -2.6,6 -6.8,9.1 -6.8,14.3 0.1,3.8 3.1,6.8 6.8,6.8 z"
   class="st2" />
</svg>