<svg xmlns="http://www.w3.org/2000/svg" viewBox="0 0 24 24">
	<defs>
		<style>.a{fill:none;stroke:currentColor;stroke-linecap:round;stroke-linejoin:round;}</style>
	</defs>
	<title>artificial-arm</title>
	<line class="a" x1="11.722" y1="9.4" x2="0.5" y2="19.5"/>
	<line class="a" x1="8.5" y1="23.5" x2="16.907" y2="13.895"/>
	<path class="a" d="M18.818,8.718a1.5,1.5,0,0,0,2.121,2.121l2.122-2.121A1.5,1.5,0,0,0,20.939,6.6Z"/>
	<path class="a" d="M16.7,6.6a1.5,1.5,0,0,0,2.121,2.122L20.939,6.6a1.5,1.5,0,1,0-2.121-2.121Z"/>
	<path class="a" d="M14.575,4.475A1.5,1.5,0,0,0,16.7,6.6l2.121-2.121A1.5,1.5,0,1,0,16.7,2.354Z"/>
	<path class="a" d="M15.99,3.061A1.5,1.5,0,0,0,13.868.939L11.586,3.222a4,4,0,0,0-.813,4.484c.827,1.82-.227.518,4.863,5.608a2,2,0,0,0,2.828,0l2.829-2.829"/>
	<path class="a" d="M13.285,14.286l-2.3,2.661a.682.682,0,0,1-1,.035.682.682,0,0,0-.964,0L7.293,18.707A1,1,0,0,0,7,19.414V20.5a1,1,0,0,1-1,1H4.933a1,1,0,0,0-.729.316L2.624,23.5"/>
	<path class="a" d="M10.51,14.2a.25.25,0,1,0,0,.353.25.25,0,0,0,0-.353"/>
	<line class="a" x1="9.973" y1="10.974" x2="15.034" y2="16.034"/>
</svg>